<?xml version="1.0" ?><svg id="Layer_1" style="enable-background:new 0 0 512 512;" version="1.1" viewBox="0 0 512 512" xml:space="preserve" xmlns="http://www.w3.org/2000/svg" xmlns:xlink="http://www.w3.org/1999/xlink"><style type="text/css">
	.st0{fill:#2B79C2;}
	.st1{fill:#3B4652;}
</style><g><path class="st0" d="M118.3,200.7c6.2,0,12.3-0.7,18.1-2c-3.4-5-7.3-9.8-11.6-14.1l-3-3c-2.5-2.5-5.6-4.1-8.7-4.5   c-11.9-1.7-22.6-7-31.1-15.5c-10.3-10.3-16-24.1-15.9-38.7c0-14.6,5.8-28.3,16.1-38.6c10.2-10.2,23.9-15.7,38.4-15.7   c13.9,0,27.2,5.2,37.3,14.7c9,8.4,14.7,19.3,16.6,31.5c0.6,3.7,2.1,7,4.5,9.4l0.7,0.7c5.2,5.2,10.9,9.7,17,13.5   c1.3-5.8,2-11.8,2-18c0-44.4-36-80.3-80.3-80.3C73.9,40,38,76,38,120.3C38,164.7,73.9,200.7,118.3,200.7z"/><path class="st1" d="M342.3,377.3l0.7,0.7c4.6,4.6,7.5,10.7,8.5,17.2c1.3,8.6,5.4,16.9,12.3,23.4c15.8,14.8,40.9,14.5,56.2-0.8   c15.9-15.8,16-41.5,0.1-57.4c-6.5-6.5-14.6-10.3-23.1-11.5c-6.3-0.9-12.2-3.9-16.7-8.5l-3.1-3c-5.9-5.9-11.1-12.5-15.5-19.5   c-10.8-17.3-16.7-37.4-16.7-58.1v-7.5c0-20.7,5.9-40.8,16.7-58.2c4.4-7,9.5-13.5,15.5-19.4l2.3-2.3c4.9-4.9,11.1-8.3,18-9.3   c8.6-1.3,16.9-5.4,23.4-12.3c14.8-15.8,14.5-40.9-0.8-56.3c-15.8-15.9-41.6-16-57.4-0.1c-6.3,6.3-10.1,14.1-11.4,22.3   c-1.1,6.8-4.3,13.2-9.2,18.1c-6.8,6.8-14.3,12.6-22.5,17.3c-4.2,2.5-8.6,4.7-13.2,6.5c-13.2,5.5-27.4,8.4-42,8.4h-17.4   c-19.5,0-38.5-5.2-55.1-14.9c-8.1-4.7-15.7-10.5-22.5-17.3L169,134c-4.6-4.6-7.5-10.7-8.5-17.1c-1.3-8.6-5.4-16.9-12.3-23.4   C132.4,78.6,107.4,79,92,94.2c-15.9,15.8-16,41.5-0.1,57.4c6.5,6.5,14.6,10.3,23.1,11.5c6.3,0.9,12.2,3.9,16.7,8.5l3.1,3.1   c5.9,5.9,11.1,12.5,15.5,19.4c10.8,17.3,16.7,37.4,16.7,58.2c0,17-3.4,33.6-9.7,48.9c-2.3,5.6-5,11-8.1,16.2   c-5.4,9.1-12,17.6-19.6,25.3L129,343c-3.2,3.2-7.4,5.2-11.9,5.6c-9.6,0.8-19,5-26.1,12.6c-14.8,15.8-14.5,40.9,0.8,56.3   c15.8,15.9,41.6,16,57.4,0.1c7-7,10.9-15.9,11.7-25c0.4-4.6,2.4-8.8,5.6-12.1l3.2-3.2c6.8-6.8,14.3-12.6,22.5-17.3   c16.6-9.7,35.6-14.9,55.1-14.9h17.4c19.5,0,38.5,5.2,55.1,14.9C328,364.7,335.5,370.5,342.3,377.3z M256,291c-19.3,0-35-15.7-35-35   s15.7-35,35-35s35,15.7,35,35S275.3,291,256,291z"/><path class="st0" d="M332.4,124.8c2.8-2.8,4.6-6.4,5.2-10.4c1.8-11.5,7.1-21.8,15.3-30c10.3-10.3,24-16,38.5-16   c14.6,0,28.4,5.7,38.7,16.1c9.9,10,15.5,23.4,15.7,37.6c0.2,14.3-5,27.8-14.7,38.1c-8.5,9-19.4,14.7-31.6,16.6   c-3.6,0.6-7.3,2.5-10.2,5.4l-2.3,2.3c-4.3,4.3-8.2,9-11.6,14.1c5.8,1.3,11.9,2,18.1,2c44.4,0,80.3-36,80.3-80.3   c0-44.4-36-80.3-80.3-80.3c-44.4,0-80.3,36-80.3,80.3c0,6.2,0.7,12.2,2,18C321.5,134.5,327.3,130,332.4,124.8z"/><path class="st0" d="M179.6,387.2l-3.2,3.2c-0.9,0.9-1.4,2.1-1.6,3.5c-1.1,12.7-6.7,24.7-15.8,33.7c-10.3,10.3-24,16-38.5,16   c-14.7,0-28.4-5.7-38.7-16.1c-9.9-10.1-15.5-23.4-15.7-37.6c-0.2-14.3,5-27.8,14.7-38.1c9.3-9.8,21.8-15.9,35.2-17   c1.1-0.1,2.3-0.6,3.1-1.5l0.4-0.4c5.9-5.9,11.2-12.5,15.7-19.6c-5.4-1.2-11.1-1.8-16.9-1.8c-44.4,0-80.3,36-80.3,80.3   s36,80.3,80.3,80.3c44.4,0,80.3-36,80.3-80.3c0-6.2-0.7-12.2-2-18C190.5,377.5,184.8,382,179.6,387.2z"/><path class="st0" d="M393.7,311.3c-6.2,0-12.3,0.7-18.1,2.1c3.4,5,7.3,9.8,11.6,14.1l3,3c2.5,2.5,5.6,4.1,8.7,4.5   c11.9,1.6,22.6,7,31.1,15.5c10.3,10.3,16,24.1,15.9,38.7c0,14.6-5.8,28.3-16.1,38.6c-10.2,10.1-23.9,15.7-38.4,15.7   c-7,0-13.8-1.3-20.1-3.8c-6.3-2.5-12.1-6.2-17.2-10.9c-9-8.5-14.7-19.3-16.6-31.5c-0.6-3.7-2.1-6.9-4.5-9.4l-0.7-0.7   c-5.2-5.2-10.9-9.7-17-13.5c-1.3,5.8-2,11.8-2,18c0,44.4,36,80.3,80.3,80.3c44.4,0,80.3-36,80.3-80.3S438.1,311.3,393.7,311.3z"/></g></svg>